<svg id="Capa_1" enable-background="new 0 0 512 512" height="512" viewBox="0 0 512 512" width="512" xmlns="http://www.w3.org/2000/svg"><g><g><path d="m424.233 398.007c33.49-39.635 51.934-90.067 51.934-142.007 0-58.809-22.901-114.097-64.485-155.681s-96.873-64.486-155.682-64.486c-51.94 0-102.373 18.443-142.007 51.933-3.35 2.831-3.567 7.929-.463 11.032 22.051 22.052 285.663 285.664 299.671 299.672 3.105 3.104 8.201 2.89 11.032-.463zm-168.233-347.174c113.13 0 205.167 92.037 205.167 205.167 0 45.668-15.303 90.087-43.243 125.98l-38.056-38.056c17.452-48.771 2.203-112.121-17.781-132.568-6.61-6.758-17.976-4.751-21.944 3.837-12.698 27.48-26.125 47.542-35.522 53.482l-7.346-7.346c1.402-3.018 3.573-6.612 5.99-10.597 12.71-20.948 33.982-56.008 5.528-113.924-20.299-41.317-67.319-53.899-76.539-56.002-9.272-2.115-17.057 7.002-14.043 16.013 4.293 12.836 9.41 38.507-4.565 66.207-1.638 3.247-3.386 6.367-5.249 9.426l-78.377-78.376c35.893-27.94 80.312-43.243 125.98-43.243zm59.295 228.518c14.265-10.985 27.766-35.026 37.546-55.894 14.737 17.102 26.365 69.706 15.123 108.562zm-96.015-96.015c2.816-4.377 5.385-8.849 7.758-13.552 14.875-29.484 11.364-56.962 6.83-73.066 13.795 3.963 46.509 16.27 61.462 46.706 24.832 50.543 7.653 78.855-4.89 99.528-1.536 2.532-2.993 4.934-4.291 7.253z"/><path d="m15 256c0-133.193 107.788-241 241-241 56.552 0 111.519 19.981 154.776 56.262 3.174 2.661 7.903 2.247 10.565-.927s2.247-7.904-.927-10.566c-45.953-38.542-104.343-59.769-164.414-59.769-141.484 0-256 114.497-256 256 0 60.04 21.207 118.407 59.714 164.35 2.661 3.175 7.392 3.59 10.566.93 3.174-2.661 3.591-7.391.93-10.566-36.248-43.247-56.21-98.192-56.21-154.714z"/><path d="m446.394 84.865c-2.769-3.08-7.512-3.33-10.592-.561-3.079 2.77-3.331 7.512-.561 10.592 39.826 44.279 61.759 101.494 61.759 161.104 0 133.193-107.787 241-241 241-59.61 0-116.825-21.933-161.104-61.759-3.08-2.77-7.822-2.519-10.592.561s-2.519 7.822.561 10.592c47.038 42.307 107.815 65.606 171.135 65.606 141.487 0 256-114.501 256-256 0-63.32-23.3-124.097-65.606-171.135z"/><path d="m98.798 113.53c-3.097-3.099-8.198-2.891-11.032.463-33.489 39.635-51.933 90.068-51.933 142.007 0 58.809 22.901 114.098 64.485 155.682s96.873 64.485 155.682 64.485c51.939 0 102.372-18.443 142.008-51.933 3.35-2.831 3.566-7.929.463-11.032-9.716-9.716-290.703-290.703-299.673-299.672zm214.077 247.605c-.509-2.749-2.505-4.987-5.178-5.806-.84-.257-20.863-6.181-47.269 4.16-7.788 3.052-16.531-.507-19.896-8.102-3.85-8.69-7.588-25.33-3.529-55.25 1.888-13.907-13.708-22.875-24.754-15.055-8.224 5.821-15.909 12.107-22.843 18.684-3.005 2.85-3.131 7.597-.281 10.603 2.85 3.004 7.597 3.131 10.603.281 6.417-6.086 13.545-11.915 21.188-17.324.497-.353 1.328.03 1.224.795-3.637 26.814-2.063 48.126 4.679 63.343 6.627 14.956 23.795 21.979 39.081 15.993 14.413-5.645 26.412-5.395 32.689-4.634.353 7.882-.413 24.298-9.984 42.933-10.597 3.109-21.707 4.737-33.056 4.737-35.008 0-66.989-15.424-88.656-40.553-.518-16.33 3.317-27.169 11.423-39.856 2.23-3.49 1.208-8.128-2.282-10.358-3.493-2.23-8.128-1.208-10.358 2.283-7.354 11.511-10.55 20.164-12.255 28.663-12.635-22.625-16.262-47.055-13.136-65.934 5.257-31.757 22.008-47.281 41.405-65.257 1.337-1.239 2.7-2.505 4.067-3.781l156.424 156.424c-9.789 10.794-21.337 19.526-34.038 25.921 8.095-23.759 4.905-41.974 4.732-42.91zm-56.875 100.032c-113.129 0-205.167-92.038-205.167-205.167 0-45.667 15.302-90.087 43.242-125.98l81.066 81.066c-1.224 1.141-2.448 2.279-3.649 3.392-20.526 19.022-39.913 36.989-46.008 73.81-10.692 64.587 44.061 143.205 130.064 143.205 37.258 0 72.246-15.488 97.243-42.756l29.188 29.188c-35.892 27.94-80.312 43.242-125.979 43.242z"/></g></g></svg>